<svg id="visual" viewBox="0 0 1920 200" width="1920" height="200" xmlns="http://www.w3.org/2000/svg" xmlns:xlink="http://www.w3.org/1999/xlink" version="1.1"><rect x="0" y="0" width="1920" height="200" fill="#151a20"></rect><path d="M0 140L21.3 141C42.7 142 85.3 144 128 142.7C170.7 141.3 213.3 136.7 256 138.5C298.7 140.3 341.3 148.7 384 141.8C426.7 135 469.3 113 512 105.5C554.7 98 597.3 105 640 111.8C682.7 118.7 725.3 125.3 768 129C810.7 132.7 853.3 133.3 896 125.3C938.7 117.3 981.3 100.7 1024 103.5C1066.7 106.3 1109.3 128.7 1152 130.5C1194.7 132.3 1237.3 113.7 1280 114.5C1322.7 115.3 1365.3 135.7 1408 141.2C1450.7 146.7 1493.3 137.3 1536 137.7C1578.7 138 1621.3 148 1664 143.7C1706.7 139.3 1749.3 120.7 1792 118.7C1834.7 116.7 1877.3 131.3 1898.7 138.7L1920 146L1920 0L1898.7 0C1877.3 0 1834.7 0 1792 0C1749.3 0 1706.7 0 1664 0C1621.3 0 1578.7 0 1536 0C1493.3 0 1450.7 0 1408 0C1365.3 0 1322.7 0 1280 0C1237.3 0 1194.7 0 1152 0C1109.3 0 1066.7 0 1024 0C981.3 0 938.7 0 896 0C853.3 0 810.7 0 768 0C725.3 0 682.7 0 640 0C597.3 0 554.7 0 512 0C469.3 0 426.7 0 384 0C341.3 0 298.7 0 256 0C213.3 0 170.7 0 128 0C85.3 0 42.7 0 21.3 0L0 0Z" fill="#c62368"></path><path d="M0 89L21.3 94.3C42.7 99.7 85.3 110.3 128 106C170.7 101.7 213.3 82.3 256 84.2C298.7 86 341.3 109 384 112.7C426.7 116.3 469.3 100.7 512 101.8C554.7 103 597.3 121 640 128.2C682.7 135.3 725.3 131.7 768 124.7C810.7 117.7 853.3 107.3 896 98.2C938.7 89 981.3 81 1024 82.7C1066.7 84.3 1109.3 95.7 1152 104C1194.7 112.3 1237.3 117.7 1280 114.7C1322.7 111.7 1365.3 100.3 1408 94.7C1450.7 89 1493.3 89 1536 96.8C1578.7 104.7 1621.3 120.3 1664 127.3C1706.7 134.3 1749.3 132.7 1792 131.8C1834.7 131 1877.3 131 1898.7 131L1920 131L1920 0L1898.7 0C1877.3 0 1834.7 0 1792 0C1749.3 0 1706.7 0 1664 0C1621.3 0 1578.7 0 1536 0C1493.3 0 1450.7 0 1408 0C1365.3 0 1322.7 0 1280 0C1237.3 0 1194.7 0 1152 0C1109.3 0 1066.7 0 1024 0C981.3 0 938.7 0 896 0C853.3 0 810.7 0 768 0C725.3 0 682.7 0 640 0C597.3 0 554.7 0 512 0C469.3 0 426.7 0 384 0C341.3 0 298.7 0 256 0C213.3 0 170.7 0 128 0C85.3 0 42.7 0 21.3 0L0 0Z" fill="#e34c67"></path><path d="M0 67L21.3 72C42.7 77 85.3 87 128 83.8C170.7 80.7 213.3 64.3 256 59.2C298.7 54 341.3 60 384 67.5C426.7 75 469.3 84 512 86.8C554.7 89.7 597.3 86.3 640 90.2C682.7 94 725.3 105 768 102.5C810.7 100 853.3 84 896 79.3C938.7 74.7 981.3 81.3 1024 79.7C1066.7 78 1109.3 68 1152 66.3C1194.7 64.7 1237.3 71.3 1280 70C1322.7 68.7 1365.3 59.3 1408 64C1450.7 68.7 1493.3 87.3 1536 90C1578.7 92.7 1621.3 79.3 1664 76.5C1706.7 73.7 1749.3 81.3 1792 87.2C1834.7 93 1877.3 97 1898.7 99L1920 101L1920 0L1898.7 0C1877.3 0 1834.7 0 1792 0C1749.3 0 1706.7 0 1664 0C1621.3 0 1578.7 0 1536 0C1493.3 0 1450.7 0 1408 0C1365.3 0 1322.7 0 1280 0C1237.3 0 1194.7 0 1152 0C1109.3 0 1066.7 0 1024 0C981.3 0 938.7 0 896 0C853.3 0 810.7 0 768 0C725.3 0 682.7 0 640 0C597.3 0 554.7 0 512 0C469.3 0 426.7 0 384 0C341.3 0 298.7 0 256 0C213.3 0 170.7 0 128 0C85.3 0 42.7 0 21.3 0L0 0Z" fill="#fa7268"></path><path d="M0 55L21.3 56.8C42.7 58.7 85.3 62.3 128 64.3C170.7 66.3 213.3 66.7 256 68C298.7 69.3 341.3 71.7 384 68.7C426.7 65.7 469.3 57.3 512 53.2C554.7 49 597.3 49 640 47C682.7 45 725.3 41 768 44.5C810.7 48 853.3 59 896 67.2C938.7 75.3 981.3 80.7 1024 78.2C1066.7 75.7 1109.3 65.3 1152 57.2C1194.7 49 1237.3 43 1280 48.7C1322.7 54.3 1365.3 71.7 1408 73.7C1450.7 75.7 1493.3 62.3 1536 62.8C1578.7 63.3 1621.3 77.7 1664 78.3C1706.7 79 1749.3 66 1792 62.7C1834.7 59.3 1877.3 65.7 1898.7 68.8L1920 72L1920 0L1898.7 0C1877.3 0 1834.7 0 1792 0C1749.3 0 1706.7 0 1664 0C1621.3 0 1578.7 0 1536 0C1493.3 0 1450.7 0 1408 0C1365.3 0 1322.7 0 1280 0C1237.3 0 1194.7 0 1152 0C1109.3 0 1066.7 0 1024 0C981.3 0 938.7 0 896 0C853.3 0 810.7 0 768 0C725.3 0 682.7 0 640 0C597.3 0 554.7 0 512 0C469.3 0 426.7 0 384 0C341.3 0 298.7 0 256 0C213.3 0 170.7 0 128 0C85.3 0 42.7 0 21.3 0L0 0Z" fill="#fa7268"></path><path d="M0 52L21.3 48.8C42.7 45.7 85.3 39.3 128 40.3C170.7 41.3 213.3 49.7 256 55.3C298.7 61 341.3 64 384 58.3C426.7 52.7 469.3 38.3 512 32.7C554.7 27 597.3 30 640 34.8C682.7 39.7 725.3 46.3 768 46C810.7 45.7 853.3 38.3 896 36.7C938.7 35 981.3 39 1024 37.8C1066.7 36.7 1109.3 30.3 1152 32.5C1194.7 34.7 1237.3 45.3 1280 45.8C1322.7 46.3 1365.3 36.7 1408 30.5C1450.7 24.3 1493.3 21.7 1536 27.8C1578.7 34 1621.3 49 1664 57C1706.7 65 1749.3 66 1792 64.5C1834.7 63 1877.3 59 1898.7 57L1920 55L1920 0L1898.7 0C1877.3 0 1834.7 0 1792 0C1749.3 0 1706.7 0 1664 0C1621.3 0 1578.7 0 1536 0C1493.3 0 1450.7 0 1408 0C1365.3 0 1322.7 0 1280 0C1237.3 0 1194.7 0 1152 0C1109.3 0 1066.7 0 1024 0C981.3 0 938.7 0 896 0C853.3 0 810.7 0 768 0C725.3 0 682.7 0 640 0C597.3 0 554.7 0 512 0C469.3 0 426.7 0 384 0C341.3 0 298.7 0 256 0C213.3 0 170.7 0 128 0C85.3 0 42.7 0 21.3 0L0 0Z" fill="#e34c67"></path><path d="M0 14L21.3 15.5C42.7 17 85.3 20 128 20C170.7 20 213.3 17 256 19C298.7 21 341.3 28 384 28C426.7 28 469.3 21 512 20.8C554.7 20.7 597.3 27.3 640 26.3C682.7 25.3 725.3 16.7 768 16.5C810.7 16.3 853.3 24.7 896 28.7C938.7 32.7 981.3 32.3 1024 27.7C1066.7 23 1109.3 14 1152 12C1194.7 10 1237.3 15 1280 20C1322.7 25 1365.3 30 1408 29.3C1450.7 28.7 1493.3 22.3 1536 19.5C1578.7 16.7 1621.3 17.3 1664 19.2C1706.7 21 1749.3 24 1792 28.5C1834.7 33 1877.3 39 1898.7 42L1920 45L1920 0L1898.7 0C1877.3 0 1834.7 0 1792 0C1749.3 0 1706.7 0 1664 0C1621.3 0 1578.7 0 1536 0C1493.3 0 1450.7 0 1408 0C1365.3 0 1322.7 0 1280 0C1237.3 0 1194.7 0 1152 0C1109.3 0 1066.7 0 1024 0C981.3 0 938.7 0 896 0C853.3 0 810.7 0 768 0C725.3 0 682.7 0 640 0C597.3 0 554.7 0 512 0C469.3 0 426.7 0 384 0C341.3 0 298.7 0 256 0C213.3 0 170.7 0 128 0C85.3 0 42.7 0 21.3 0L0 0Z" fill="#c62368"></path></svg>