<svg id="visual" viewBox="0 0 2920 200" width="2920" height="200" xmlns="http://www.w3.org/2000/svg" xmlns:xlink="http://www.w3.org/1999/xlink" version="1.1"><rect x="0" y="0" width="2920" height="200" 
fill="#151a20"
></rect><path d="M0 47L24.3 50.5C48.7 54 97.3 61 146 63.7C194.7 66.3 243.3 64.7 292 62.8C340.7 61 389.3 59 438 56.7C486.7 54.3 535.3 51.7 584 53.8C632.7 56 681.3 63 730 60.7C778.7 58.3 827.3 46.7 876 41C924.7 35.3 973.3 35.7 1022 38C1070.7 40.3 1119.3 44.7 1168 46.7C1216.7 48.7 1265.3 48.3 1314 46.2C1362.7 44 1411.3 40 1460 44.3C1508.7 48.7 1557.3 61.3 1606 64.7C1654.7 68 1703.3 62 1752 57.8C1800.7 53.7 1849.3 51.3 1898 54C1946.7 56.7 1995.3 64.3 2044 62.3C2092.7 60.3 2141.3 48.7 2190 45.7C2238.7 42.7 2287.3 48.3 2336 51.7C2384.7 55 2433.3 56 2482 53.8C2530.7 51.7 2579.3 46.3 2628 43.8C2676.7 41.3 2725.3 41.7 2774 45.3C2822.7 49 2871.3 56 2895.7 59.5L2920 63L2920 201L2895.7 201C2871.3 201 2822.7 201 2774 201C2725.3 201 2676.7 201 2628 201C2579.3 201 2530.7 201 2482 201C2433.3 201 2384.7 201 2336 201C2287.3 201 2238.7 201 2190 201C2141.3 201 2092.7 201 2044 201C1995.3 201 1946.7 201 1898 201C1849.3 201 1800.7 201 1752 201C1703.3 201 1654.7 201 1606 201C1557.3 201 1508.7 201 1460 201C1411.3 201 1362.7 201 1314 201C1265.3 201 1216.7 201 1168 201C1119.3 201 1070.7 201 1022 201C973.3 201 924.7 201 876 201C827.3 201 778.7 201 730 201C681.3 201 632.7 201 584 201C535.3 201 486.7 201 438 201C389.3 201 340.7 201 292 201C243.3 201 194.7 201 146 201C97.3 201 48.7 201 24.3 201L0 201Z" 
fill="#ff0066"
></path><path d="M0 91L24.3 90.2C48.7 89.3 97.3 87.7 146 87.8C194.7 88 243.3 90 292 86.8C340.7 83.7 389.3 75.3 438 74C486.7 72.7 535.3 78.3 584 81.5C632.7 84.7 681.3 85.3 730 85.3C778.7 85.3 827.3 84.7 876 85.5C924.7 86.3 973.3 88.7 1022 91.2C1070.7 93.7 1119.3 96.3 1168 96C1216.7 95.7 1265.3 92.3 1314 87.8C1362.7 83.3 1411.3 77.7 1460 78.5C1508.7 79.3 1557.3 86.7 1606 89.8C1654.7 93 1703.3 92 1752 87.8C1800.7 83.7 1849.3 76.3 1898 73C1946.7 69.7 1995.3 70.3 2044 70.5C2092.7 70.7 2141.3 70.3 2190 74.8C2238.7 79.3 2287.3 88.7 2336 90.8C2384.7 93 2433.3 88 2482 84.7C2530.7 81.3 2579.3 79.7 2628 78.8C2676.7 78 2725.3 78 2774 79.8C2822.7 81.7 2871.3 85.3 2895.7 87.2L2920 89L2920 201L2895.7 201C2871.3 201 2822.7 201 2774 201C2725.3 201 2676.7 201 2628 201C2579.3 201 2530.7 201 2482 201C2433.3 201 2384.7 201 2336 201C2287.3 201 2238.7 201 2190 201C2141.3 201 2092.7 201 2044 201C1995.3 201 1946.7 201 1898 201C1849.3 201 1800.7 201 1752 201C1703.3 201 1654.7 201 1606 201C1557.3 201 1508.7 201 1460 201C1411.3 201 1362.7 201 1314 201C1265.3 201 1216.7 201 1168 201C1119.3 201 1070.7 201 1022 201C973.3 201 924.7 201 876 201C827.3 201 778.7 201 730 201C681.3 201 632.7 201 584 201C535.3 201 486.7 201 438 201C389.3 201 340.7 201 292 201C243.3 201 194.7 201 146 201C97.3 201 48.7 201 24.3 201L0 201Z" 
fill="#ee0086"
></path><path d="M0 113L24.3 112.3C48.7 111.7 97.3 110.3 146 110.5C194.7 110.7 243.3 112.3 292 112.2C340.7 112 389.3 110 438 108C486.7 106 535.3 104 584 106.8C632.7 109.7 681.3 117.3 730 121.5C778.7 125.7 827.3 126.3 876 126.5C924.7 126.7 973.3 126.3 1022 125.7C1070.7 125 1119.3 124 1168 121.2C1216.7 118.3 1265.3 113.7 1314 112.8C1362.7 112 1411.3 115 1460 114.8C1508.7 114.7 1557.3 111.3 1606 109.2C1654.7 107 1703.3 106 1752 105C1800.7 104 1849.3 103 1898 106.3C1946.7 109.7 1995.3 117.3 2044 118.7C2092.7 120 2141.3 115 2190 110.7C2238.7 106.3 2287.3 102.7 2336 103.5C2384.7 104.3 2433.3 109.7 2482 110.3C2530.7 111 2579.3 107 2628 109C2676.7 111 2725.3 119 2774 118.7C2822.7 118.3 2871.3 109.7 2895.7 105.3L2920 101L2920 201L2895.7 201C2871.3 201 2822.7 201 2774 201C2725.3 201 2676.7 201 2628 201C2579.3 201 2530.7 201 2482 201C2433.3 201 2384.7 201 2336 201C2287.3 201 2238.7 201 2190 201C2141.3 201 2092.7 201 2044 201C1995.3 201 1946.7 201 1898 201C1849.3 201 1800.7 201 1752 201C1703.3 201 1654.7 201 1606 201C1557.3 201 1508.7 201 1460 201C1411.3 201 1362.7 201 1314 201C1265.3 201 1216.7 201 1168 201C1119.3 201 1070.7 201 1022 201C973.3 201 924.7 201 876 201C827.3 201 778.7 201 730 201C681.3 201 632.7 201 584 201C535.3 201 486.7 201 438 201C389.3 201 340.7 201 292 201C243.3 201 194.7 201 146 201C97.3 201 48.7 201 24.3 201L0 201Z" 
fill="#d100a4"
></path><path d="M0 141L24.3 142.5C48.7 144 97.3 147 146 146C194.7 145 243.3 140 292 138.5C340.7 137 389.3 139 438 140.3C486.7 141.7 535.3 142.3 584 140.5C632.7 138.7 681.3 134.3 730 134.2C778.7 134 827.3 138 876 137.8C924.7 137.7 973.3 133.3 1022 132.8C1070.7 132.3 1119.3 135.7 1168 138.7C1216.7 141.7 1265.3 144.3 1314 146C1362.7 147.7 1411.3 148.3 1460 146.2C1508.7 144 1557.3 139 1606 137.7C1654.7 136.3 1703.3 138.7 1752 137.8C1800.7 137 1849.3 133 1898 133.3C1946.7 133.7 1995.3 138.3 2044 139.2C2092.7 140 2141.3 137 2190 139C2238.7 141 2287.3 148 2336 147.5C2384.7 147 2433.3 139 2482 138.7C2530.7 138.3 2579.3 145.7 2628 149.5C2676.7 153.3 2725.3 153.7 2774 153.3C2822.7 153 2871.3 152 2895.7 151.5L2920 151L2920 201L2895.7 201C2871.3 201 2822.7 201 2774 201C2725.3 201 2676.7 201 2628 201C2579.3 201 2530.7 201 2482 201C2433.3 201 2384.7 201 2336 201C2287.3 201 2238.7 201 2190 201C2141.3 201 2092.7 201 2044 201C1995.3 201 1946.7 201 1898 201C1849.3 201 1800.7 201 1752 201C1703.3 201 1654.7 201 1606 201C1557.3 201 1508.7 201 1460 201C1411.3 201 1362.7 201 1314 201C1265.3 201 1216.7 201 1168 201C1119.3 201 1070.7 201 1022 201C973.3 201 924.7 201 876 201C827.3 201 778.7 201 730 201C681.3 201 632.7 201 584 201C535.3 201 486.7 201 438 201C389.3 201 340.7 201 292 201C243.3 201 194.7 201 146 201C97.3 201 48.7 201 24.3 201L0 201Z" 
fill="#a111c1"
></path><path d="M0 159L24.3 158.8C48.7 158.7 97.3 158.3 146 161C194.7 163.7 243.3 169.3 292 169C340.7 168.7 389.3 162.3 438 158.8C486.7 155.3 535.3 154.7 584 156.8C632.7 159 681.3 164 730 165.3C778.7 166.7 827.3 164.3 876 166C924.7 167.7 973.3 173.3 1022 175.7C1070.7 178 1119.3 177 1168 174.8C1216.7 172.7 1265.3 169.3 1314 167.2C1362.7 165 1411.3 164 1460 165C1508.7 166 1557.3 169 1606 167.8C1654.7 166.7 1703.3 161.3 1752 159.5C1800.7 157.7 1849.3 159.3 1898 162.7C1946.7 166 1995.3 171 2044 171.7C2092.7 172.3 2141.3 168.7 2190 165.7C2238.7 162.7 2287.3 160.3 2336 158.7C2384.7 157 2433.3 156 2482 155.8C2530.7 155.7 2579.3 156.3 2628 156.7C2676.7 157 2725.3 157 2774 156.3C2822.7 155.7 2871.3 154.3 2895.7 153.7L2920 153L2920 201L2895.7 201C2871.3 201 2822.7 201 2774 201C2725.3 201 2676.7 201 2628 201C2579.3 201 2530.7 201 2482 201C2433.3 201 2384.7 201 2336 201C2287.3 201 2238.7 201 2190 201C2141.3 201 2092.7 201 2044 201C1995.3 201 1946.7 201 1898 201C1849.3 201 1800.7 201 1752 201C1703.3 201 1654.7 201 1606 201C1557.3 201 1508.7 201 1460 201C1411.3 201 1362.7 201 1314 201C1265.3 201 1216.7 201 1168 201C1119.3 201 1070.7 201 1022 201C973.3 201 924.7 201 876 201C827.3 201 778.7 201 730 201C681.3 201 632.7 201 584 201C535.3 201 486.7 201 438 201C389.3 201 340.7 201 292 201C243.3 201 194.7 201 146 201C97.3 201 48.7 201 24.3 201L0 201Z" 
fill="#191552"
></path></svg>