<svg id="visual" viewBox="0 0 2920 200" width="2920" height="200" xmlns="http://www.w3.org/2000/svg" xmlns:xlink="http://www.w3.org/1999/xlink" version="1.1"><rect x="0" y="0" width="2920" height="200" fill="#151a20"></rect><path d="M0 143L28.7 131.2C57.3 119.3 114.7 95.7 172 97C229.3 98.3 286.7 124.7 343.8 128.8C401 133 458 115 515.2 104.5C572.3 94 629.7 91 687 93C744.3 95 801.7 102 859 106.7C916.3 111.3 973.7 113.7 1030.8 121.8C1088 130 1145 144 1202.2 143.8C1259.3 143.7 1316.7 129.3 1374 126.7C1431.3 124 1488.7 133 1546 138.7C1603.3 144.3 1660.7 146.7 1717.8 145C1775 143.3 1832 137.7 1889.2 132C1946.3 126.3 2003.7 120.7 2061 124.8C2118.3 129 2175.7 143 2233 136.5C2290.3 130 2347.7 103 2404.8 104.3C2462 105.7 2519 135.3 2576.2 136.7C2633.3 138 2690.7 111 2748 102C2805.3 93 2862.7 102 2891.3 106.5L2920 111L2920 0L2891.3 0C2862.7 0 2805.3 0 2748 0C2690.7 0 2633.3 0 2576.2 0C2519 0 2462 0 2404.8 0C2347.7 0 2290.3 0 2233 0C2175.7 0 2118.3 0 2061 0C2003.7 0 1946.3 0 1889.2 0C1832 0 1775 0 1717.8 0C1660.7 0 1603.3 0 1546 0C1488.7 0 1431.3 0 1374 0C1316.7 0 1259.3 0 1202.2 0C1145 0 1088 0 1030.8 0C973.7 0 916.3 0 859 0C801.7 0 744.3 0 687 0C629.7 0 572.3 0 515.2 0C458 0 401 0 343.8 0C286.7 0 229.3 0 172 0C114.7 0 57.3 0 28.7 0L0 0Z" fill="#d100a4"></path><path d="M0 126L28.7 127.5C57.3 129 114.7 132 172 128.3C229.3 124.7 286.7 114.3 343.8 109.7C401 105 458 106 515.2 112.3C572.3 118.7 629.7 130.3 687 131.3C744.3 132.3 801.7 122.7 859 121.8C916.3 121 973.7 129 1030.8 127.8C1088 126.7 1145 116.3 1202.2 103.5C1259.3 90.7 1316.7 75.3 1374 67.7C1431.3 60 1488.7 60 1546 66.3C1603.3 72.7 1660.7 85.3 1717.8 89.2C1775 93 1832 88 1889.2 94C1946.3 100 2003.7 117 2061 114.2C2118.3 111.3 2175.7 88.7 2233 90.7C2290.3 92.7 2347.7 119.3 2404.8 119.7C2462 120 2519 94 2576.2 82.3C2633.3 70.7 2690.7 73.3 2748 76C2805.3 78.7 2862.7 81.3 2891.3 82.7L2920 84L2920 0L2891.3 0C2862.7 0 2805.3 0 2748 0C2690.7 0 2633.3 0 2576.2 0C2519 0 2462 0 2404.8 0C2347.7 0 2290.3 0 2233 0C2175.7 0 2118.3 0 2061 0C2003.7 0 1946.3 0 1889.2 0C1832 0 1775 0 1717.8 0C1660.7 0 1603.3 0 1546 0C1488.7 0 1431.3 0 1374 0C1316.7 0 1259.3 0 1202.2 0C1145 0 1088 0 1030.8 0C973.7 0 916.3 0 859 0C801.7 0 744.3 0 687 0C629.7 0 572.3 0 515.2 0C458 0 401 0 343.8 0C286.7 0 229.3 0 172 0C114.7 0 57.3 0 28.7 0L0 0Z" fill="#c100af"></path><path d="M0 112L28.7 111.7C57.3 111.3 114.7 110.7 172 105.2C229.3 99.7 286.7 89.3 343.8 84.8C401 80.3 458 81.7 515.2 77.7C572.3 73.7 629.7 64.3 687 68.8C744.3 73.3 801.7 91.7 859 100.7C916.3 109.7 973.7 109.3 1030.8 106.7C1088 104 1145 99 1202.2 96C1259.3 93 1316.7 92 1374 96C1431.3 100 1488.7 109 1546 105C1603.3 101 1660.7 84 1717.8 80.5C1775 77 1832 87 1889.2 92.2C1946.3 97.3 2003.7 97.7 2061 90.2C2118.3 82.7 2175.7 67.3 2233 69.3C2290.3 71.3 2347.7 90.7 2404.8 103.3C2462 116 2519 122 2576.2 113.5C2633.3 105 2690.7 82 2748 74.7C2805.3 67.3 2862.7 75.7 2891.3 79.8L2920 84L2920 0L2891.3 0C2862.7 0 2805.3 0 2748 0C2690.7 0 2633.3 0 2576.2 0C2519 0 2462 0 2404.8 0C2347.7 0 2290.3 0 2233 0C2175.7 0 2118.3 0 2061 0C2003.7 0 1946.3 0 1889.2 0C1832 0 1775 0 1717.8 0C1660.7 0 1603.3 0 1546 0C1488.7 0 1431.3 0 1374 0C1316.7 0 1259.3 0 1202.2 0C1145 0 1088 0 1030.8 0C973.7 0 916.3 0 859 0C801.7 0 744.3 0 687 0C629.7 0 572.3 0 515.2 0C458 0 401 0 343.8 0C286.7 0 229.3 0 172 0C114.7 0 57.3 0 28.7 0L0 0Z" fill="#ad08bb"></path><path d="M0 90L28.7 83C57.3 76 114.7 62 172 55C229.3 48 286.7 48 343.8 50.7C401 53.3 458 58.7 515.2 62.3C572.3 66 629.7 68 687 71.8C744.3 75.7 801.7 81.3 859 77.3C916.3 73.3 973.7 59.7 1030.8 50.5C1088 41.3 1145 36.7 1202.2 44C1259.3 51.3 1316.7 70.7 1374 77.5C1431.3 84.3 1488.7 78.7 1546 80.8C1603.3 83 1660.7 93 1717.8 91.8C1775 90.7 1832 78.3 1889.2 70.5C1946.3 62.7 2003.7 59.3 2061 57.8C2118.3 56.3 2175.7 56.7 2233 58C2290.3 59.3 2347.7 61.7 2404.8 68.8C2462 76 2519 88 2576.2 91.3C2633.3 94.7 2690.7 89.3 2748 84C2805.3 78.7 2862.7 73.3 2891.3 70.7L2920 68L2920 0L2891.3 0C2862.7 0 2805.3 0 2748 0C2690.7 0 2633.3 0 2576.2 0C2519 0 2462 0 2404.8 0C2347.7 0 2290.3 0 2233 0C2175.7 0 2118.3 0 2061 0C2003.7 0 1946.3 0 1889.2 0C1832 0 1775 0 1717.8 0C1660.7 0 1603.3 0 1546 0C1488.7 0 1431.3 0 1374 0C1316.7 0 1259.3 0 1202.2 0C1145 0 1088 0 1030.8 0C973.7 0 916.3 0 859 0C801.7 0 744.3 0 687 0C629.7 0 572.3 0 515.2 0C458 0 401 0 343.8 0C286.7 0 229.3 0 172 0C114.7 0 57.3 0 28.7 0L0 0Z" fill="#9419c7"></path><path d="M0 53L28.7 56.5C57.3 60 114.7 67 172 65.7C229.3 64.3 286.7 54.7 343.8 49C401 43.3 458 41.7 515.2 46.8C572.3 52 629.7 64 687 66.8C744.3 69.7 801.7 63.3 859 62.3C916.3 61.3 973.7 65.7 1030.8 68.3C1088 71 1145 72 1202.2 71.2C1259.3 70.3 1316.7 67.7 1374 62.3C1431.3 57 1488.7 49 1546 41.3C1603.3 33.7 1660.7 26.3 1717.8 29C1775 31.7 1832 44.3 1889.2 49C1946.3 53.7 2003.7 50.3 2061 51.5C2118.3 52.7 2175.7 58.3 2233 58.5C2290.3 58.7 2347.7 53.3 2404.8 50.7C2462 48 2519 48 2576.2 51C2633.3 54 2690.7 60 2748 64.8C2805.3 69.7 2862.7 73.3 2891.3 75.2L2920 77L2920 0L2891.3 0C2862.7 0 2805.3 0 2748 0C2690.7 0 2633.3 0 2576.2 0C2519 0 2462 0 2404.8 0C2347.7 0 2290.3 0 2233 0C2175.7 0 2118.3 0 2061 0C2003.7 0 1946.3 0 1889.2 0C1832 0 1775 0 1717.8 0C1660.7 0 1603.3 0 1546 0C1488.7 0 1431.3 0 1374 0C1316.7 0 1259.3 0 1202.2 0C1145 0 1088 0 1030.8 0C973.7 0 916.3 0 859 0C801.7 0 744.3 0 687 0C629.7 0 572.3 0 515.2 0C458 0 401 0 343.8 0C286.7 0 229.3 0 172 0C114.7 0 57.3 0 28.7 0L0 0Z" fill="#7226d2"></path><path d="M0 21L28.7 20.2C57.3 19.3 114.7 17.7 172 17.2C229.3 16.7 286.7 17.3 343.8 20.5C401 23.7 458 29.3 515.2 33C572.3 36.7 629.7 38.3 687 36C744.3 33.7 801.7 27.3 859 22.3C916.3 17.3 973.7 13.7 1030.8 12.3C1088 11 1145 12 1202.2 15.8C1259.3 19.7 1316.7 26.3 1374 27.8C1431.3 29.3 1488.7 25.7 1546 21.8C1603.3 18 1660.7 14 1717.8 16.8C1775 19.7 1832 29.3 1889.2 30.7C1946.3 32 2003.7 25 2061 25C2118.3 25 2175.7 32 2233 34.8C2290.3 37.7 2347.7 36.3 2404.8 33.3C2462 30.3 2519 25.7 2576.2 26.5C2633.3 27.3 2690.7 33.7 2748 37.7C2805.3 41.7 2862.7 43.3 2891.3 44.2L2920 45L2920 0L2891.3 0C2862.7 0 2805.3 0 2748 0C2690.7 0 2633.3 0 2576.2 0C2519 0 2462 0 2404.8 0C2347.7 0 2290.3 0 2233 0C2175.7 0 2118.3 0 2061 0C2003.7 0 1946.3 0 1889.2 0C1832 0 1775 0 1717.8 0C1660.7 0 1603.3 0 1546 0C1488.7 0 1431.3 0 1374 0C1316.7 0 1259.3 0 1202.2 0C1145 0 1088 0 1030.8 0C973.7 0 916.3 0 859 0C801.7 0 744.3 0 687 0C629.7 0 572.3 0 515.2 0C458 0 401 0 343.8 0C286.7 0 229.3 0 172 0C114.7 0 57.3 0 28.7 0L0 0Z" fill="#191552"></path></svg>